<svg width="25" height="25" viewBox="0 0 25 25" fill="none" xmlns="http://www.w3.org/2000/svg">
<g clip-path="url(#clip0_63_2290)">
<path d="M18.7499 12.5C18.7499 12.7763 18.6401 13.0412 18.4448 13.2366C18.2494 13.4319 17.9845 13.5417 17.7082 13.5417C17.432 13.5417 17.167 13.4319 16.9717 13.2366C16.7763 13.0412 16.6666 12.7763 16.6666 12.5C16.6666 12.2237 16.7763 11.9588 16.9717 11.7634C17.167 11.5681 17.432 11.4583 17.7082 11.4583C17.9845 11.4583 18.2494 11.5681 18.4448 11.7634C18.6401 11.9588 18.7499 12.2237 18.7499 12.5ZM7.29155 5.20833C7.56782 5.20833 7.83277 5.09859 8.02812 4.90324C8.22347 4.70789 8.33322 4.44293 8.33322 4.16667C8.33322 3.01771 9.26759 2.08333 10.4166 2.08333C11.5655 2.08333 12.4999 3.01771 12.4999 4.16667C12.4999 4.44293 12.6096 4.70789 12.805 4.90324C13.0003 5.09859 13.2653 5.20833 13.5416 5.20833C13.8178 5.20833 14.0828 5.09859 14.2781 4.90324C14.4735 4.70789 14.5832 4.44293 14.5832 4.16667C14.5832 1.86875 12.7145 0 10.4166 0C8.11864 0 6.24989 1.86875 6.24989 4.16667C6.24989 4.44293 6.35963 4.70789 6.55498 4.90324C6.75033 5.09859 7.01529 5.20833 7.29155 5.20833ZM24.9999 13.5417V15.625C24.9999 16.7771 24.2207 17.4781 23.3666 17.6604C22.6692 19.3946 21.4104 20.8448 19.7916 21.7792V21.875C19.7916 23.5979 18.3895 25 16.6666 25C16.0206 24.9986 15.3908 24.7977 14.8633 24.4248C14.3359 24.0519 13.9364 23.5252 13.7197 22.9167H11.2791C11.0623 23.5252 10.6629 24.0519 10.1354 24.4248C9.60793 24.7977 8.97815 24.9986 8.33218 25C6.60926 25 5.20718 23.5979 5.20718 21.875V21.7927C3.85773 21.0178 2.75322 19.8793 2.01963 18.507C1.28604 17.1347 0.952903 15.5838 1.05822 14.0312C1.12384 13.0125 1.38114 12.0448 1.79259 11.1604C1.25604 10.908 0.802368 10.5082 0.484561 10.0076C0.166754 9.50697 -0.00207074 8.92629 -0.00219727 8.33333C-0.00219727 6.61042 1.39989 5.20833 3.1228 5.20833C3.39907 5.20833 3.66402 5.31808 3.85937 5.51343C4.05472 5.70878 4.16447 5.97373 4.16447 6.25C4.16447 6.52627 4.05472 6.79122 3.85937 6.98657C3.66402 7.18192 3.39907 7.29167 3.1228 7.29167C2.86277 7.29197 2.61225 7.38952 2.42049 7.56514C2.22872 7.74077 2.10958 7.98176 2.08647 8.24077C2.06336 8.49977 2.13797 8.75806 2.29561 8.96485C2.45326 9.17165 2.68255 9.312 2.93843 9.35833C3.76136 8.3805 4.78898 7.5953 5.94867 7.0582C7.10837 6.5211 8.37186 6.24521 9.64989 6.25H15.2363C15.9999 4.71042 17.4259 3.63333 19.327 3.18125C19.6293 3.10937 19.944 3.10709 20.2473 3.17457C20.5506 3.24206 20.8347 3.37755 21.078 3.57083C21.3265 3.76617 21.5273 4.0155 21.6652 4.29992C21.8031 4.58435 21.8744 4.89642 21.8738 5.2125V9.08229C22.5064 9.79876 23.011 10.6187 23.3655 11.5062C24.2207 11.6885 24.9999 12.3896 24.9999 13.5417ZM22.9166 13.5417H22.6103C22.3859 13.5415 22.1676 13.469 21.9878 13.3348C21.808 13.2006 21.6763 13.0119 21.6124 12.7969C21.3196 11.8266 20.7968 10.9414 20.0884 10.2167C19.8984 10.0223 19.7919 9.76139 19.7916 9.48958V5.2125C18.7759 5.45417 17.4322 6.07708 16.9124 7.64479C16.7655 8.08542 16.3363 8.38854 15.8811 8.35729C15.8103 8.35417 9.65197 8.33438 9.65197 8.33438C6.21134 8.33438 3.34989 10.8958 3.13843 14.1667C3.05342 15.4172 3.34765 16.6643 3.98267 17.745C4.61769 18.8257 5.56396 19.6896 6.6978 20.224C6.87554 20.3086 7.02566 20.4419 7.13074 20.6084C7.23583 20.7749 7.29159 20.9677 7.29155 21.1646V21.876C7.29155 22.451 7.75926 22.9177 8.33322 22.9177C8.90718 22.9177 9.37489 22.451 9.37489 21.876C9.37489 21.301 9.84155 20.8344 10.4166 20.8344H14.5832C15.1582 20.8344 15.6249 21.3 15.6249 21.876C15.6249 22.1523 15.7346 22.4173 15.93 22.6126C16.1253 22.808 16.3903 22.9177 16.6666 22.9177C16.9428 22.9177 17.2078 22.808 17.4031 22.6126C17.5985 22.4173 17.7082 22.1523 17.7082 21.876V21.1531C17.7083 20.9565 17.764 20.764 17.8689 20.5977C17.9738 20.4315 18.1235 20.2983 18.3009 20.2135C19.0907 19.8402 19.7935 19.3054 20.3639 18.6437C20.9342 17.982 21.3596 17.2081 21.6124 16.3719C21.6763 16.1568 21.808 15.9682 21.9878 15.834C22.1676 15.6998 22.3859 15.6272 22.6103 15.6271H22.9166V13.5437V13.5417Z" fill="black"/>
</g>
<defs>
<clipPath id="clip0_63_2290">
<rect width="25" height="25" fill="white"/>
</clipPath>
</defs>
</svg>
